# xmcd CD database file
#
# Track frame offsets:
#        150
#        14496
#        28797
#        44596
#        59008
#        75697
#        94134
#        111455
#        128423
#        143225
#        157808
#        172776
#        197787
#
# Disc length: 3035 seconds
#
# Revision: 0
# Processed by: cddbd v1.5.2PL0 Copyright (c) Steve Scherf et al.
# Submitted via: CUERipper 2.1.4
#
DISCID=ad0bd90d
DTITLE=Christophe Maé - Mon paradis
DYEAR=2007
DGENRE=
TTITLE0=On s'attache
TTITLE1=Mon paradis
TTITLE2=Belle demoiselle
TTITLE3=Parce qu'on sait jamais
TTITLE4=Ça fait mal
TTITLE5=L'art et la manière
TTITLE6=C'est ma terre
TTITLE7=Maman
TTITLE8=Ma vie est une larme
TTITLE9=Va voir ailleurs
TTITLE10=Mon père spirituel
TTITLE11=Spleen
TTITLE12=Data track
EXTD=
EXTT0=
EXTT1=
EXTT2=
EXTT3=
EXTT4=
EXTT5=
EXTT6=
EXTT7=
EXTT8=
EXTT9=
EXTT10=
EXTT11=
EXTT12=
PLAYORDER=
